Coordinates
version=1
nRows=4
nColumns=63
inDegrees=yes

Units are S.I. units (second, meters, Newtons, ...)
If the header above contains a line with 'inDegrees', this indicates whether rotational values are in degrees (yes) or radians (no).

endheader
time	pelvis_tilt	pelvis_list	pelvis_rotation	pelvis_tx	pelvis_ty	pelvis_tz	hip_flexion_r	hip_adduction_r	hip_rotation_r	knee_angle_r	knee_angle_r_beta	ankle_angle_r	subtalar_angle_r	mtp_angle_r	hip_flexion_l	hip_adduction_l	hip_rotation_l	knee_angle_l	knee_angle_l_beta	ankle_angle_l	subtalar_angle_l	mtp_angle_l	L5_S1_Flex_Ext	L5_S1_Lat_Bending	L5_S1_axial_rotation	L4_L5_Flex_Ext	L4_L5_Lat_Bending	L4_L5_axial_rotation	L3_L4_Flex_Ext	L3_L4_Lat_Bending	L3_L4_axial_rotation	L2_L3_Flex_Ext	L2_L3_Lat_Bending	L2_L3_axial_rotation	L1_L2_Flex_Ext	L1_L2_Lat_Bending	L1_L2_axial_rotation	L1_T12_Flex_Ext	L1_T12_Lat_Bending	L1_T12_axial_rotation	Abs_r3	Abs_r2	Abs_r1	Abs_t1	Abs_t2	neck_flexion	neck_bending	neck_rotation	arm_flex_r	arm_add_r	arm_rot_r	elbow_flex_r	pro_sup_r	wrist_flex_r	wrist_dev_r	arm_flex_l	arm_add_l	arm_rot_l	elbow_flex_l	pro_sup_l	wrist_flex_l	wrist_dev_l
      1.40000000	      4.51927393	     -5.92187815	     91.00919945	      0.16158705	      0.86061320	      0.44381015	     11.56933210	     -1.30261986	    -20.63567976	     19.44580253	      0.33939328	     33.12632820	     18.60978206	      0.00000000	     14.20844179	     -3.76423809	     -3.37731526	     21.37942821	      0.37314141	     30.47734985	     -1.43133925	      0.00000000	      0.01835753	     -0.10488328	      1.79265770	      0.03409176	     -0.13949476	      1.90469880	      0.03015958	     -0.25501320	      1.90469880	      0.02098082	     -0.25501320	      1.56857548	      0.01704680	     -0.21387798	      1.45653438	      0.01048949	     -0.16246420	      1.34449327	      0.13112598	     -1.18646060	      9.97022431	      0.00000000	      0.00000000	     15.32749563	      5.60641824	     -8.93357548	      5.60830422	    -11.01398006	     62.55438602	     27.25868584	     87.37814846	     -3.05235743	      9.60679187	     11.14605300	     -7.53283318	     78.84654475	     24.63018439	     67.42857151	    -12.62187508	    -11.38042604
      1.41666667	      4.51926675	     -5.96250094	     91.27123255	      0.16127335	      0.86063714	      0.44421397	     11.62965546	     -1.38168621	    -20.99490157	     19.52247235	      0.34073142	     33.07732773	     18.63616935	      0.00000000	     14.27996051	     -3.74059442	     -3.34299862	     21.28966821	      0.37157481	     30.46825358	     -1.13306423	      0.00000000	      0.01815938	     -0.11040313	      1.74641597	      0.03372378	     -0.14683616	      1.85556697	      0.02983404	     -0.26843417	      1.85556697	      0.02075435	     -0.26843417	      1.52811397	      0.01686280	     -0.22513406	      1.41896297	      0.01037627	     -0.17101445	      1.30981198	      0.12971062	     -1.24890230	      9.71304169	      0.00000000	      0.00000000	     15.58331406	      5.71671859	     -9.48976607	      5.78789022	    -11.02699108	     63.68604479	     27.12993166	     87.18430078	     -2.45521503	     10.14317381	     11.24177805	     -7.70593135	     79.00213728	     24.99230482	     67.21197925	    -12.81741752	    -11.19736205
      1.43333333	      4.62226464	     -6.04558791	     91.67443210	      0.16082992	      0.86046580	      0.44468921	     11.69536207	     -1.34371913	    -21.34668905	     19.48834318	      0.34013575	     33.05911717	     18.59512014	      0.00000000	     14.56112268	     -3.75570523	     -3.00867914	     21.39964642	      0.37349429	     30.61550335	     -1.22632391	      0.00000000	      0.02703609	     -0.10232749	      1.67712377	      0.05020873	     -0.13609556	      1.78194401	      0.04441760	     -0.24879906	      1.78194401	      0.03089955	     -0.24879906	      1.46748330	      0.02510572	     -0.20866622	      1.36266306	      0.01544842	     -0.15850528	      1.25784283	      0.19311612	     -1.15754902	      9.32765927	      0.00000000	      0.00000000	     15.89215390	      5.74896287	     -9.86818427	      5.78254691	    -11.05542933	     63.84244763	     27.10211809	     87.47658970	     -1.24035418	     11.09579959	     10.86984404	     -7.80468035	     76.82272461	     25.35948870	     69.06782837	    -12.63093503	    -10.90188309
      1.45000000	      4.65105882	     -6.11469736	     92.27606889	      0.16033895	      0.86032844	      0.44538590	     11.75885459	     -1.42686264	    -21.95087921	     19.48056494	      0.34000000	     33.11048237	     18.60769285	      0.00000000	     14.90620484	     -3.65826176	     -2.52799931	     21.52114789	      0.37561489	     30.80766694	     -1.28434858	      0.00000000	      0.02899281	     -0.10463953	      1.55671275	      0.05384254	     -0.13917058	      1.65400730	      0.04763228	     -0.25442056	      1.65400730	      0.03313588	     -0.25442056	      1.36212366	      0.02692272	     -0.21338094	      1.26482911	      0.01656649	     -0.16208664	      1.16753456	      0.20709273	     -1.18370332	      8.65796930	      0.00000000	      0.00000000	     16.33023476	      5.77047602	    -10.15587182	      6.28382033	    -10.86535100	     66.09636588	     26.48507672	     87.38025462	     -0.65432664	     11.35178533	     10.25031725	     -7.93508074	     73.17822575	     25.76972995	     72.25678150	    -12.05394047	    -10.31788518
